<?xml version="1.0" encoding="utf-8"?>
<!-- Generator: Adobe Illustrator 26.0.2, SVG Export Plug-In . SVG Version: 6.00 Build 0)  -->
<svg version="1.1" id="Слой_1" xmlns="http://www.w3.org/2000/svg" xmlns:xlink="http://www.w3.org/1999/xlink" x="0px" y="0px"
	 viewBox="0 0 1920 466" style="enable-background:new 0 0 1920 466;" xml:space="preserve">
<style type="text/css">
	.st0{fill:#1C1C1A;}
	.st1{fill:#92BF39;}
</style>
<g>
	<g>
		<path class="st0" d="M10.4,216.7c0,15.5,12.5,28,28,28c15.5,0,28-12.5,28-28V78.2h68.9v138.6c0,15.5,12.5,28,28,28
			c15.5,0,28-12.5,28-28V27.6h-181V216.7z"/>
		<path class="st0" d="M277.4,134.7c0,148.5,219.9,148.5,219.9,0C497.3-13.5,277.4-13.5,277.4,134.7z M333.7,134.7
			c0-77.2,107.5-77.2,107.5,0C441.2,212.5,333.7,212.5,333.7,134.7z"/>
		<path class="st0" d="M888.3,166l-41.9,68v8h61.3l36.7-63.1h28.5V242h54.8V27.6h-94C849.4,27.9,834.1,129.3,888.3,166z M972.8,76.6
			v55.5h-39.2c-29.7,0-31.2-55.2,0-55.5C946.5,76.3,972.8,76.6,972.8,76.6z"/>
		<path class="st0" d="M1331.5,242V52.9c0-15.5-12.5-28-28-28c-15.5,0-28,12.5-28,28v52.5h-67.8V52.9c0-15.5-12.6-28-28-28
			c-15.5,0-28,12.5-28,28V242h56v-86h67.8v86H1331.5z"/>
		<path class="st0" d="M1549.1,24.9h-23.9L1428.8,234v8h53.6l11.1-26.9h87.3L1592,242h53.6v-8L1549.1,24.9z M1510.5,174l26.7-64.5
			l26.7,64.5H1510.5z"/>
		<polygon class="st0" points="767.3,234 670.8,24.9 647.5,24.9 551.1,234 551.1,242 607.2,242 659.2,125.6 711.2,242 767.3,242 		
			"/>
	</g>
	<g>
		<path class="st1" d="M1423.8,225.5c0.3-0.4,1.2-1.3,3.7-2.6c2.6-1.3,4.6-2.9,5.9-4.8c1.2-1.4,2.7-2.6,4.4-3.6
			c2.3-1.3,4.2-2.8,5.6-4.5c2.2-2.3,3.3-4.9,3.3-7.8c0-4.3-2.4-7.9-7-10.7c-4.2-2.5-8.5-3.8-12.8-3.8c-3.4,0-6.3,0.8-8.5,2.5
			l-0.3,0.3c-0.5,0.5-1.3,0.8-2.3,1.1c-2,0.5-3.5,1.2-4.7,2.1l-0.3,0.3c-1.7,1.7-2.5,3.6-2.3,5.5c0,0.3,0,0.5-0.1,0.7
			c-0.9,1-1.7,2.3-2.5,3.8c-0.7,1.4-1.2,1.9-1.5,2.1l-0.1,0.1c-10,8.6-19.2,17.6-27.1,26.7c-7.7,9-16,17.9-24.5,26.4
			c-1.1,0.9-2.1,2.2-2.9,3.8c-0.7,1.4-1,1.8-1,1.8c-0.6,0.6-1.2,1-1.9,1.2c-1.4,0.6-2.9,1.6-4.7,3.1l-0.1,0.1
			c-14.6,13.9-26.9,26.1-36.5,36.2c-9.6,10-18.1,18.4-25.3,24.8c-6.3,5.7-12.8,10.2-19.3,13.6c-1-2.1-1.3-3-1.4-3.3
			c-0.3-1.1-0.7-1.9-1.1-2.6c0,0,0,0,0-0.1c0-0.1,0.1-1,0.9-5.1c1.5-6.6,3.3-14.9,5.4-24.9c2.1-9.8,4.6-20.4,7.5-31.5
			c2.8-11,6.2-21.6,10.1-31.5c3.8-9.8,8.2-18,13.2-24.7c3.9-5.5,4.4-7.6,4.4-9.1c0-2.7-1.6-4.7-4.4-5.3c-1.5-0.3-3.2-0.6-5.4-0.8
			c-0.9-0.2-1.7-0.4-2.5-0.5c-0.9-0.1-1.8-0.2-2.8-0.2c-7.1,0-14.6,2.5-22,7.5c-7.1,4.7-14.6,10.8-22.4,18.1
			c-7.5,7.1-15.6,14.5-24,21.8c-1.4,1.1-2.2,2-2.8,2.9c-0.6,1-0.9,1.9-0.9,2.8c-0.1,0.2-0.5,0.5-1.1,1l-0.2,0.2
			c-1.7,1.7-3.8,3.1-6.2,4.4c-3,1.5-5.7,3.4-7.8,5.5c-18.5,18.1-36.2,37.8-52.6,58.5c-16.5,20.9-30.2,41.7-40.6,61.9
			c-4.9,9.6-8.5,17.4-10.6,23.1c-2.3,6-3.4,10.8-3.4,14.6c0,3.1,0.7,5.8,2.1,8c1.2,1.9,2.6,3.7,4.2,5.3c1.4,1.4,3.2,2.1,5.3,2.1
			c0.8,0,1.6-0.1,2.4-0.4c0.7-0.4,1.7-0.9,2.6-1.7c1.4-1.3,2.3-2.6,2.8-3.5c0.1-0.3,0.2-0.7,0.3-1.1c0.1-0.4,0.2-0.7,0.2-1.1l0-0.2
			c0.5-2,0.7-4.9,0.6-8.8c-0.1-4,0.3-6.1,0.6-7.2c0.3-0.9,0.5-1.9,0.5-2.8v-7.3c0-1,0.4-2.1,1.3-3.3l0.2-0.2
			c2.9-4.8,6.1-10,9.3-15.5c3.1-5.3,7.6-11.9,13.4-19.6c5.8-7.7,14-17.6,24.5-29.4l12.6-13.9c1.5-1.5,4-4.2,7.2-8l9.5-11.1
			c3.1-3.7,5.4-6.2,6.8-7.6c1.8-1.8,3.7-3.4,5.8-4.9c2.4-1.7,4.6-3.6,6.6-5.6c13.6-13.6,25-23.9,33.8-30.6c5.1-3.9,9.1-6.9,12.2-9
			c-0.4,2.5-1,5.4-1.6,8.5c-0.9,3.8-1.6,7.3-2.2,10.4c-0.5,2.6-0.9,3.6-1,4l-0.3,0.4c-1.2,2.1-2.4,5.3-3.9,9.9
			c-1.4,4.4-2.6,8.9-3.4,13.4c-0.9,4.5-1.4,7.8-1.6,9.9c-0.2,1.8-0.3,3.4-0.3,4.7v4.3c0,0.1-0.1,0.5-0.4,1.3
			c-0.3,1.1-0.9,3.2-1.8,6.5c-0.9,3.2-2.1,8.3-3.9,15.1c-0.5,2.3-0.7,5.3-0.7,9.2c0,3.3,0.3,6.8,0.8,10.3c0.6,3.9,1.7,6.9,3.3,9
			l0.2,0.3l0.3,0.2c1.8,1.5,4.4,2.3,7.7,2.3c2.6,0,5.2-0.4,7.7-1.1c2.5-0.7,4.1-1.3,5.2-1.9c2-1.1,4.2-2.5,6.4-4.2
			c0.3-0.2,0.6-0.5,0.9-0.7v0.5l4.8-3.4c1.7-1.2,3.5-3,5.1-5.3c1.3-1.7,2.6-3.1,3.9-4c5.5-4.2,10-7.8,13.6-10.7
			c3.5-2.9,7-6,10.4-9.2c3.3-3.2,7.5-7.4,12.5-12.5c4.9-5,11.5-11.6,20.3-20.2c5.9-5.7,13.1-12.7,21.6-20.9
			c-2.1,3.7-5.5,9.2-10.3,16.3l-0.4,0.4l-0.2,0.3c-0.5,0.9-1.4,2.9-3.7,10.5c-4,6.2-7.3,12.7-9.6,19.2c-2.3,6.5-4.6,13.1-6.7,19.7
			c-2.1,6.4-4.8,13.3-8.2,20.4c-1.6,3.7-2.7,8.1-3.3,13.3c-0.5,4.6-1.3,8.4-2.2,11.1l-0.1,0.2c-0.6,2.2-0.4,4.4,0.6,6.3
			c0.3,0.5,0.5,1.1,0.6,1.5l-0.1,0.4c-0.7,2.2-1.1,4.1-1.1,5.7c0,1.7,0.3,3.2,0.9,4.6c0.4,1.1,1,2.4,1.6,3.9l0.3,0.6
			c1.1,1.5,2.1,2.9,3.1,4.2c1.5,2,3.6,3.1,6.1,3.1c1.1,0,2.1-0.2,2.9-0.6l0.4-0.2c5.1-3.4,6.1-7.4,6.1-10.1c0-1.9-0.4-3.7-1.1-5.2
			c-0.5-1.1-1.1-2.1-1.6-3c0.1-0.4,0.2-1.1,0.6-2.3c0.9-2.7,1.5-5.3,1.7-7.6c0.6-3.9,2.6-10.4,5.7-19.4c3.2-9.2,7.6-19.9,13-31.8
			c5.4-11.9,11.4-23.7,17.8-35.2c7.3-12.6,15.3-25.5,23.8-38.2C1403,251,1412.8,238.2,1423.8,225.5z"/>
		<path class="st1" d="M1495.6,357.2c-2.8,0-6.2,1.4-10.6,4.3c-3.6,2.3-5.8,3.7-6.6,4.3c-0.3,0.2-0.5,0.3-0.6,0.4
			c-0.8,0.1-1.8,0.5-4.9,2.2c-3.3,1.8-5.6,3-7.1,3.9c-1.4,0.8-2.8,1.5-4.1,2.1c-1.3,0.6-3.1,1.3-5.5,2.1c-2.5,0.9-6.2,2.3-10.8,4.2
			c-5.1,2-7.5,2.8-8.6,3c-1.6,0.4-3,0.6-4.2,0.6c-1.7,0-4.3,0.3-8.2,1l-0.3,0.1l-0.3,0.1c-1.2,0.5-2.5,0.9-3.7,1.1
			c-1.3,0.2-2.6,0.3-3.7,0.3c-4.2,0-5.3-1.6-5.7-2.1c-1.2-1.7-1.8-3.9-1.8-6.7c0-4.9,1.6-10,4.6-15l0.2-0.5
			c2.6-0.5,6.2-0.3,10.8,0.6c3.5,0.7,6.7,1,9.6,1c3.3,0,5.9-0.5,8-1.6c1.7-0.8,4.5-2.3,8.7-4.5c4.1-2.1,8.4-4.6,12.7-7.3
			c4.6-2.8,8.3-5.7,11-8.7c6.5-7.2,11.2-12.9,14.1-17.4c2.9-4.3,5.5-8.8,7.9-13.1c1.9-4.4,2.8-8.4,3.2-11.6c0.1-1,0.3-2.1,0.3-3.6
			c0.1-2.2-0.3-6.8-2.5-12c-1.4-3.3-4.5-7.3-11.7-7.3h-0.3c-0.2,0-1.7-0.1-6.2-2.5c-4-2.1-8-3.2-11.9-3.2l-0.3,0
			c-6.8,0.7-14.4,3.6-22.6,8.7c-8.1,5-16.1,12.1-23.9,20.9c-7.5,8.4-14.3,17.5-20.2,27.2c-5.9,9.7-10.7,19.1-14.1,28.2
			c-3.5,9.2-5.3,17.6-5.3,24.9c0,1.4,0.1,2.7,0.2,3.9c0.1,1.3,0.3,2.5,0.5,3.7c0.7,3.1,2.2,6.4,4.3,10c2.6,4.2,6.6,6.4,11.6,6.4h0.3
			c0.4,0,1.6,0.1,4.3,0.8c2.3,0.6,4.5,1.3,6.5,2c3.2,1.1,4.4,1.3,5.1,1.3c1.6,0,3.9-0.5,7.2-1.6c2.2-0.7,4.5-1.6,6.8-2.5l-2.7,2.7
			l32.1-13.7c2-0.5,3.6-1.3,4.9-2.2c0.6-0.4,1.2-0.7,2-0.8l0.4-0.1l0.4-0.2c4-2,8.3-4.7,13-8.2c4.7-3.5,8.7-6.4,12.2-8.8
			c3.7-2.5,6.2-4.7,7.8-6.6c1.9-2.3,2.7-4.1,2.7-5.7C1500.8,359.5,1499.2,357.2,1495.6,357.2z M1419,345.4c0,0,0-0.2,0.2-0.7
			c0.3-0.8,0.6-1.6,0.9-2.5c2.2-4.5,5.2-9.1,9-13.6c4-4.7,8.4-9.6,13.2-14.6c5-5,7.7-7,9.1-7.8c2.1-1.2,4.9-2.5,8.4-4
			c3-1.2,4.2-1.4,4.6-1.4c0.7,0,2.1,0.8,4,3.1c0,2.4-0.2,4.9-0.5,7.6c-0.2,1.8-1.5,5.4-6.5,12.4c-1.3,1.4-2.9,2.7-4.9,3.9
			c-2.6,1.5-5.5,3.9-8.9,7.3c-3.7,3.7-6.5,6.2-8.5,7.6c-2,1.4-3.6,2.4-4.7,3c-1.3,0.7-2.7,1.6-4.2,2.8c-0.5,0.1-1,0.2-1.5,0.3
			c-0.7,0.1-1.4,0.1-2.2,0.1c-2.3,0-4.3-0.4-6-1.3C1419.4,347.1,1419,346.4,1419,345.4z"/>
		<path class="st1" d="M1659.2,295.1c3.6,0,6.6-1.7,8.5-5c1.5-2.6,2.6-5.4,3.2-8.2c0.8-3.6,0.9-4.7,0.9-5.4c0-4.9-3.1-7.8-8.4-7.8
			c-3.9,0-10.3,1.6-19.8,4.9c-1.9-0.4-3.3,0.1-4.1,0.6c-7.1,4.6-14,8.8-20.5,12.5c-6.3,3.5-12.2,6.8-17.7,9.6h-0.8l-0.9,0.9
			c-1.3,1.3-2.6,2.4-3.7,3.1c-1.1,0.7-2.1,1.3-2.9,1.6l-0.6,0.3c-3.4,2.2-6.7,5.2-10.1,8.7c-3,3.2-6.9,6.5-11.6,9.8
			c-5.2,3.7-9.6,7-13.1,9.9c1.1-1.7,2.3-3.3,3.4-4.9c1.2-1.7,2.8-3.8,3.4-4.6c4-5.5,7.5-10.1,10.4-13.7c3-3.7,5.2-6.4,6.8-8.2
			c1.6-1.6,3.4-3.1,5.2-4.6c2.1-1.7,4.1-3.4,6-5c5.5-4.8,8.4-9.8,8.4-14.7c0-6.4-4-10-11-10c-9.5,0-18,3.7-25.4,11.1
			c-2.3,2.3-4.7,5.2-7.2,8.8c-2.5,3.5-5.2,7.8-8.2,12.7l-2.4,4c-3.1,4.5-5.8,8.5-8.2,12.2c-3.1,4.7-5.7,8.6-7.8,11.8l-0.3,0.6
			c-1.1,2.7-1.8,4.6-2.2,5.7l-0.2,0.5v0.2c-0.1,0.3-0.5,1.2-1.5,3.1c-1.3,2.4-2.7,5.1-4.3,8.2c-1.6,3.1-3,6-4.3,8.7
			c-1.5,3.1-2.2,5.4-2.2,7.2c0,1.3-0.3,2.5-1,3.5c-0.9,1.4-1.9,2.8-3.1,4.1l-0.2,0.3l-0.2,0.3c-4.2,8.4-6.4,16.5-6.4,23.9
			c0,5.6,1.8,8.9,5.2,9.6l0.5,0.1l0.5-0.1c6.7-0.7,12-4.4,15.6-10.7l0.2-0.4c0.8-2.1,1.6-3.9,2.2-5.3c0.6-1.4,1-2.7,1.3-3.8
			c15.1-22.1,38-43.5,68.1-63.5h0.4l0.8-0.6c8.2-6,16.3-10.5,24-13.5c7.8-3,15.1-5.8,21.9-8.6H1659.2z"/>
		<path class="st1" d="M1735.6,357.2c-2.8,0-6.2,1.4-10.5,4.3c-3.6,2.3-5.8,3.7-6.6,4.3c-0.3,0.2-0.5,0.3-0.6,0.4
			c-0.7,0.1-1.8,0.5-4.6,2.1c-0.7,0.2-1.7,0.8-3.7,2c-2,1.2-3.9,2.3-5.8,3.3c-1.3,0.7-1.9,1-2.3,1.2h-0.2l-0.7,0.4
			c-5.7,3.3-10.5,5.6-14.1,6.8c-3.6,1.2-8.2,2.1-13.7,2.7c-2.7,0.3-5.2-0.1-7.4-1.4c-2.3-1.3-2.6-2-2.6-2v-0.3
			c0-0.8-0.1-1.6-0.2-2.5c-0.1-0.6-0.1-1.2-0.1-1.9c0-6.1,2.4-14.9,7.2-26c4.8-11.2,13.7-23.5,26.3-36.5c4.1-4.3,8.2-8.1,12.2-11.1
			c3.6-2.8,6.9-4.2,9.8-4.2c3.1,0,6.6,0.9,10.2,2.6c3.4,1.6,5.6,3.7,6.8,6.4l0.1,0.2c1.8,3.4,5.4,5.1,10.6,5.1c5.2,0,8-2.4,9.5-4.5
			l0.2-0.4c1.7-3.4,2.5-6.9,2.5-10.6c0-4.1-1.2-8.4-3.5-12.7c-2.7-5-7.6-7.5-14.7-7.5h-0.3c-0.1,0-1.5-0.1-6.1-2.8
			c-4.2-2.5-8.4-3.4-12.3-2.9c-6.8,0.7-14.4,3.6-22.6,8.7c-8.1,5-16.1,12.1-23.9,20.9c-10.9,12.4-19.8,25.2-26.4,38
			c-6.7,13-10,24.6-10,34.6c0,3,0.4,5.9,1,8.7c0.4,1.6,0.8,3.7,1.2,6.1c0.5,3,1.4,5.5,2.8,7.7c1.2,1.9,3.6,4.1,8.4,4.1h0.3
			c0.2,0,1,0.1,3.3,1.1l6,2.9c3.2,1.5,4.4,1.7,5.3,1.7c2.3,0,5.4-0.7,9.5-2.1c3.9-1.3,7.7-2.8,11.3-4.4c4.9-2.2,6.4-3.1,7.1-3.7
			l0.1-0.1c0.2-0.1,0.7-0.4,2.2-1c1.7-0.8,3.5-1.6,5.3-2.4c1.4-0.7,2.1-0.9,2.3-1h1l1.2-1.2c2.4-2.4,4.6-4.2,6.5-5.5
			c2-1.3,4.4-2.7,7-4.2c2.7-1.5,6.1-3.6,10.6-6.5c3.7-2.5,6.2-4.7,7.8-6.6c1.9-2.3,2.7-4.1,2.7-5.7
			C1740.8,359.5,1739.2,357.2,1735.6,357.2z"/>
		<path class="st1" d="M1905.8,284.9l-0.4-0.3c-2.7-1.9-6.6-2.8-11.9-2.8c-7.3,0-16,1.7-25.8,4.9c-6,2-10.2,3.8-12.8,5.4l-8.7,5.6
			h1.8c-0.2,0.1-0.4,0.2-0.5,0.4c-2.4,1.5-4.5,2.8-6.4,3.8c-1.4,0.7-2.1,1.1-2.5,1.2h-0.9l-0.7,0.4c-8.9,5.3-17.7,10.8-26.1,16.3
			c-6,4-11.1,7.7-15.3,11.3c0.3-0.7,0.7-1.4,1-2.2c2-3.9,6-9,11.9-15.4c3.6-3.9,6.1-7.3,7.7-10.5c1.4-2.9,2.8-5.8,4.3-8.7
			c1.4-2.8,3.6-6.3,6.7-10.4l0.2-0.3c1.1-1.8,2.6-3.5,4.4-4.9c2.3-1.8,4.4-3.9,6.3-6.3c1.6-2.3,4.2-5.6,7.7-10.3
			c3.5-4.5,6.5-8.6,8.8-12.1l1.1-1.5c1.1-0.8,2.5-1.4,4.4-1.8c4.1-0.8,7.6-2.5,10.6-4.9l0.1-0.1c4.5-4.2,7.9-8.6,10.2-13.1
			c2.3-4.5,3.6-8.6,3.8-12.2l0-0.3l0-0.3c-0.4-4-2.6-5.9-4.4-6.7c-4.6-2.2-11.6-1.7-19.6,0.6c-4.5,1.3-8.3,2.8-11.5,4.3
			c-2.2,1.1-4.3,3.2-6.2,6.4c-1.8,3-2.9,4.4-3.5,5l-11.4,14.6c-2.7,3.4-4.5,6-5.6,8c-1,1.9-1.9,3.8-2.7,5.7c-0.7,1.6-2,4.1-4.1,7.4
			l-2.9,4.6h0.1l-2,3c-0.4,0.6-1.4,2.2-3.6,5.7c-1.9,3.1-4,6.5-6.4,10.2c-2.3,3.7-4.3,6.8-6,9.3c-0.2,0.3-0.4,0.6-0.5,0.8
			c-1.8,0.2-3,1.8-4,3c-1.4,1.9-3,4.1-4.6,6.8c-1.9,3-2.9,4.5-3.5,5.1l-3.9,4.9h0.6c-0.6,0.9-1.1,1.6-1.5,2.3
			c-1,1.7-1.9,3.5-2.7,5.3c-0.3,0.6-0.6,1.4-1.1,2.2v-1.1l-5.6,9.4c-0.8,1.4-1.4,3.1-1.8,5.1c0,0,0,0.1,0,0.1l-0.5,1
			c-1.6,3.2-3.1,5.6-4.4,7.2c-1.7,2-3.7,5.5-6.2,10.8c-0.9,2.2-1,3.6-0.6,4.7v0.3c-0.1,0.1-0.2,0.2-0.3,0.4v-5.7l-5.8,15.8
			c-1.5,4.1-2.7,7.7-3.4,10.8c-0.8,3.2-1.2,6.1-1.2,8.7c0,5.2,1.7,8.5,4.9,9.5l0.5,0.2h0.5c1.4,0,3-0.3,4.9-0.9
			c2.1-0.7,4.2-2.3,6.2-4.8c0.2-0.2,0.6-0.5,1.3-0.9c1.3-0.8,2.5-2.1,3.6-4.1l0.1-0.1c0.7-1.5,1.3-3.3,1.8-5.5
			c0.3-1.4,0.8-2.5,1.4-3.3c6.6-9.1,14.7-18,24.1-26.4c9.4-8.4,19.3-16.4,29.6-23.8c1.1-0.7,2.9-1.8,5.5-3.5l8-5.1
			c3.3-2.1,4.6-3.1,5.2-3.7c1.9-1.3,3.5-2.4,4.8-3c1.4-0.8,3-1.7,4.8-2.8l8.9-5.6h-1.2c0.2-0.2,0.5-0.3,0.8-0.5
			c3.1-1.9,4-2.2,4.1-2.2l0.4-0.1c1.9-0.8,3.8-1.3,5.6-1.6c2.2-0.3,3.2-0.4,3.7-0.4c1.4,0.2,2.6,0.6,3.4,1.4c0.2,0.2,1,0.9,1,3
			c0,1-0.2,2.2-0.5,3.5c-0.4,1.4-1,2.9-1.9,4.5c-1.8,3.1-4.6,7-8.4,11.6c-3.9,4.9-7.5,9.5-10.9,13.9c-3.6,4.7-5.8,8.4-6.8,11.3
			c-0.6,1.4-1.6,3.6-3.1,6.6c-1.5,3.1-2.9,6.2-4.2,9.2c-1.5,3.4-2.2,5.9-2.2,7.9c0,1.1,0.2,2.4,0.5,4.3c0.4,1.8,0.4,2.7,0.4,3.1v1.1
			l0.4,0.7c1.2,1.9,2.6,2.7,3.7,2.9v0.9l0.6,0.8c1,1.4,1.9,2.7,2.6,3.9c1.3,2.3,4,3.4,7.9,3.4c4.7,0,8.2-1.3,10.5-3.9
			c2.2-2.5,3.3-5.1,3.3-7.7c0-1.8-0.5-3.5-1.4-4.8c-0.5-0.8-1.2-1.5-2.3-2.4c0,0,0,0-0.1,0c0.1-0.3,0.4-1.2,1.5-2.8
			c1.8-2.7,2.9-4.9,3.2-6.9c1-4.3,2.9-9.1,5.6-14.1c2.8-5.2,5.8-10.3,8.8-15.1c3-4.8,5.5-8.5,7.3-10.9c1.4-1.8,2.7-3.3,3.7-4.4
			c1.1-1.2,2.2-3,3.2-5.3l0.2-0.3c0.9-1.3,1.6-2.3,2.2-3.2c2-3.3,3.9-6.7,5.9-10c1.4-4,2.1-7.3,2.1-10.2
			C1909.6,290.7,1908.3,287.3,1905.8,284.9z"/>
	</g>
</g>
</svg>
